<svg width="62" height="62" viewBox="0 0 62 62" fill="none" xmlns="http://www.w3.org/2000/svg">
<path d="M54.1131 21.4546C54.0847 19.499 53.723 17.5589 53.0307 15.7299C51.8191 12.6066 49.352 10.137 46.2288 8.92798C44.423 8.24856 42.5139 7.88431 40.5816 7.84298C38.0964 7.7319 37.3085 7.7009 31 7.7009C24.6915 7.7009 23.8829 7.7009 21.4158 7.84298C19.4861 7.88431 17.577 8.24856 15.7712 8.92798C12.648 10.137 10.1783 12.6066 8.96933 15.7299C8.28991 17.5356 7.92308 19.4447 7.88692 21.3745C7.77583 23.8622 7.74225 24.6501 7.74225 30.9586C7.74225 37.2671 7.74225 38.0731 7.88692 40.5428C7.92567 42.4751 8.28991 44.3816 8.96933 46.1926C10.1809 49.3132 12.648 51.7829 15.7738 52.9919C17.5718 53.6946 19.4809 54.0924 21.4184 54.1544C23.9062 54.2655 24.6941 54.2991 31.0026 54.2991C37.3111 54.2991 38.1197 54.2991 40.5868 54.1544C42.5165 54.1156 44.4256 53.7514 46.2339 53.072C49.3572 51.8604 51.8243 49.3907 53.0358 46.2701C53.7153 44.4617 54.0795 42.5552 54.1183 40.6203C54.2293 38.1351 54.2629 37.3472 54.2629 31.0361C54.2578 24.7276 54.2578 23.9268 54.1131 21.4546ZM30.9845 42.8885C24.3867 42.8885 19.0417 37.5436 19.0417 30.9457C19.0417 24.3479 24.3867 19.003 30.9845 19.003C37.5772 19.003 42.9273 24.3479 42.9273 30.9457C42.9273 37.5436 37.5772 42.8885 30.9845 42.8885ZM43.4026 21.3461C41.8603 21.3461 40.6177 20.1009 40.6177 18.5612C40.6177 17.0216 41.8603 15.7764 43.4026 15.7764C44.9397 15.7764 46.1848 17.0216 46.1848 18.5612C46.1848 20.1009 44.9397 21.3461 43.4026 21.3461Z" fill="white"/>
<path d="M30.9845 38.7035C35.269 38.7035 38.7422 35.2303 38.7422 30.9458C38.7422 26.6613 35.269 23.188 30.9845 23.188C26.7 23.188 23.2267 26.6613 23.2267 30.9458C23.2267 35.2303 26.7 38.7035 30.9845 38.7035Z" fill="white"/>
</svg>
