<svg width="62" height="62" viewBox="0 0 62 62" fill="none" xmlns="http://www.w3.org/2000/svg">
<path d="M52.9247 44.2783L42.4235 34.7303C41.3927 33.7926 39.8014 33.8417 38.8301 34.8414L32.6482 41.199C31.1602 40.9148 28.1687 39.9823 25.0893 36.9107C22.01 33.8288 21.0774 30.8295 20.801 29.3518L27.1534 23.1673C28.1557 22.196 28.2022 20.6073 27.2645 19.5739L17.7191 9.07526C16.7813 8.03934 15.1874 7.94117 14.1257 8.85051L8.51983 13.6581C8.07291 14.1076 7.80683 14.7018 7.77066 15.3347C7.73191 15.9805 6.99308 31.279 18.8557 43.1468C29.2046 53.4931 42.1677 54.25 45.7379 54.25C46.2597 54.25 46.5801 54.2345 46.6653 54.2293C47.2982 54.1932 47.8924 53.9271 48.3393 53.4776L53.1443 47.8692C54.0588 46.8074 53.9581 45.2161 52.9247 44.2783Z" fill="white"/>
</svg>
