<svg width="62" height="62" viewBox="0 0 62 62" fill="none" xmlns="http://www.w3.org/2000/svg">
<path d="M51.6667 7.75H10.3333C8.90475 7.75 7.75 8.90733 7.75 10.3333V51.6667C7.75 53.0927 8.90475 54.25 10.3333 54.25H51.6667C53.0952 54.25 54.25 53.0927 54.25 51.6667V10.3333C54.25 8.90733 53.0952 7.75 51.6667 7.75ZM21.5424 47.3706H14.6397V25.1797H21.5424V47.3706ZM18.0911 22.1495C15.8797 22.1495 14.0921 20.3567 14.0921 18.1505C14.0921 15.9443 15.8772 14.1515 18.0911 14.1515C20.2972 14.1515 22.0901 15.9417 22.0901 18.1505C22.0901 20.3593 20.2972 22.1495 18.0911 22.1495ZM47.3732 47.3706H40.4782V36.58C40.4782 34.007 40.4318 30.6978 36.8926 30.6978C33.3018 30.6978 32.7567 33.5033 32.7567 36.3992V47.3732H25.8669V25.1823H32.4802V28.2152H32.5758C33.4929 26.4714 35.7456 24.6321 39.0962 24.6321C46.0815 24.6321 47.3706 29.2252 47.3706 35.2031V47.3706H47.3732Z" fill="white"/>
</svg>
