<svg width="62" height="62" viewBox="0 0 62 62" fill="none" xmlns="http://www.w3.org/2000/svg">
<path fill-rule="evenodd" clip-rule="evenodd" d="M31.0672 5.16666C16.8356 5.16666 5.301 16.7012 5.301 30.9328C5.301 42.315 12.6816 51.9741 22.9219 55.3841C24.211 55.6166 24.676 54.8235 24.676 54.1415C24.676 53.5292 24.6553 51.9069 24.6476 49.7602C17.4788 51.3153 15.965 46.3037 15.965 46.3037C14.7973 43.3277 13.1053 42.5346 13.1053 42.5346C10.7673 40.9355 13.2835 40.9717 13.2835 40.9717C15.872 41.1525 17.2283 43.6273 17.2283 43.6273C19.5274 47.5643 23.2629 46.4277 24.7251 45.7689C24.9602 44.1027 25.6318 42.966 26.3655 42.3227C20.646 41.6743 14.632 39.463 14.632 29.5869C14.632 26.7788 15.6369 24.4745 17.2773 22.6765C17.0164 22.0229 16.1252 19.4008 17.5331 15.8565C17.5331 15.8565 19.6953 15.1616 24.6166 18.4941C26.6781 17.9232 28.8765 17.6364 31.0646 17.6261C33.2578 17.6364 35.4588 17.9232 37.5126 18.4941C42.4364 15.159 44.5961 15.8565 44.5961 15.8565C46.004 19.4008 45.1205 22.0229 44.8518 22.6765C46.5052 24.4745 47.4972 26.7762 47.4972 29.5869C47.4972 39.4888 41.478 41.664 35.7378 42.3021C36.6549 43.0977 37.4816 44.6684 37.4816 47.0709C37.4816 50.5171 37.4506 53.2967 37.4506 54.1415C37.4506 54.8312 37.9104 55.6321 39.2253 55.3789C49.4605 51.9637 56.8333 42.3124 56.8333 30.9328C56.8333 16.7012 45.2988 5.16666 31.0672 5.16666Z" fill="white"/>
</svg>
